<svg version="1.1" id="Layer_1" xmlns="http://www.w3.org/2000/svg" xmlns:xlink="http://www.w3.org/1999/xlink" x="0px" y="0px"
	 width="100%" viewBox="0 0 1060 1060" enable-background="new 0 0 1060 1060" xml:space="preserve">
<path fill="none" opacity="1.000000" stroke="#000000" stroke-linecap="round" stroke-linejoin="round" stroke-width="5.000000"
	d="
M609.000000,969.500000 
	C611.942749,969.921997 613.736511,967.520996 615.940613,966.384766 
	C628.868347,959.720276 642.785767,956.775818 657.005493,955.045105 
	C676.754822,952.641235 696.645874,952.375610 716.494690,951.392212 
	C738.156982,950.319092 759.816345,949.031555 781.024353,943.594910 
	C797.504028,939.370300 813.199585,933.624390 826.982910,923.476746 
	C846.901978,908.811523 859.913513,889.136719 867.993164,865.997620 
	C876.074646,842.853394 880.381897,819.053589 879.449036,794.501953 
	C878.403625,766.987183 870.108765,741.804260 854.538879,718.973511 
	C840.096802,697.796631 821.335327,681.184387 799.943726,667.588501 
	C764.151001,644.839783 724.844299,630.737488 683.500000,622.000000 
"/>
<path fill="none" opacity="1.000000" stroke="#000000" stroke-linecap="round" stroke-linejoin="round" stroke-width="5.000000"
	d="
M685.000000,310.000000 
	C691.894470,302.177246 696.127563,292.767212 700.451904,283.477631 
	C713.591125,255.252151 718.045715,225.318787 716.388977,194.505966 
	C714.985718,168.408340 708.871216,143.227631 698.988342,119.004745 
	C696.324951,112.476738 695.489563,112.173019 688.496948,112.973320 
	C677.126770,114.274612 667.397400,119.562187 658.022705,125.535614 
	C629.412476,143.765549 605.652100,167.556702 582.533997,192.032120 
	C575.646729,199.323761 569.166687,207.000000 562.500000,214.500000 
"/>
<path fill="none" opacity="1.000000" stroke="#000000" stroke-linecap="round" stroke-linejoin="round" stroke-width="5.000000"
	d="
M470.500000,214.500000 
	C456.426636,198.923660 442.670288,183.042694 427.479828,168.521103 
	C411.087677,152.850739 394.357361,137.543549 374.976807,125.537445 
	C364.974213,119.340935 354.750549,113.624191 342.505707,112.903084 
	C338.558990,112.670654 336.650604,113.286301 334.824463,117.422501 
	C324.587952,140.607788 319.060822,164.863251 317.012604,190.001022 
	C314.726166,218.063751 317.818756,245.520828 327.608612,271.959778 
	C332.541901,285.282837 338.509033,298.239624 347.500000,309.500000 
"/>
<path fill="none" opacity="1.000000" stroke="#000000" stroke-linecap="round" stroke-linejoin="round" stroke-width="5.000000"
	d="
M507.000000,446.000000 
	C502.219666,432.515350 500.823242,418.225006 497.065979,404.481964 
	C490.359833,379.952484 482.098083,356.183990 467.548431,334.966797 
	C456.010590,318.141632 441.716461,304.954620 421.992798,298.522095 
	C406.913361,293.604248 391.653229,294.427124 376.518585,298.077087 
	C366.657013,300.455383 357.638397,305.211700 348.555634,309.614746 
	C347.157135,310.292725 346.527130,312.518921 345.495911,313.997131 
	C332.332428,332.866699 320.122253,352.276245 310.963074,373.484039 
	C306.993866,382.674652 303.207306,391.801270 302.270142,401.978821 
	C302.047668,404.394623 303.695282,406.715302 302.250000,409.000000 
"/>
<path fill="none" opacity="1.000000" stroke="#000000" stroke-linecap="round" stroke-linejoin="round" stroke-width="5.000000"
	d="
M730.000000,407.500000 
	C732.143127,397.486359 728.363220,388.318390 724.820496,379.572723 
	C715.087585,355.545990 701.101685,333.823914 686.567993,312.453735 
	C684.360535,309.207886 680.819336,308.198639 677.897522,306.699707 
	C663.871277,299.504120 648.923401,294.982117 633.000305,295.058990 
	C612.976685,295.155609 595.692627,302.307617 580.971008,315.968750 
	C564.181274,331.548981 553.675110,351.080139 545.575378,372.029144 
	C537.582092,392.702698 532.202393,414.141205 528.450195,435.991455 
	C527.981506,438.720734 526.833374,441.333344 526.000000,444.000000 
"/>
<path fill="none" opacity="1.000000" stroke="#000000" stroke-linecap="round" stroke-linejoin="round" stroke-width="5.000000"
	d="
M379.000000,706.000000 
	C387.795410,703.823669 396.720673,704.552002 405.487732,705.602295 
	C430.981232,708.656372 453.283295,718.906067 473.216766,735.235413 
	C478.482941,739.549377 479.823700,743.500000 479.562042,749.502686 
	C478.574310,772.162659 477.819214,794.832825 477.005066,817.500183 
	C476.478271,832.165894 475.973541,846.832458 475.510315,861.500305 
	C475.247437,869.824341 469.439056,873.830017 461.506012,870.983276 
	C457.310944,869.477844 453.457031,871.550354 449.515991,872.112122 
	C440.081970,873.456787 427.253479,867.228088 424.594757,858.969482 
	C422.853088,853.559387 424.757233,847.942993 426.770447,843.112732 
	C428.457947,839.064026 428.128540,836.143494 426.552307,832.477478 
	C412.891724,800.705566 400.087555,768.593323 388.465118,736.012451 
	C385.700317,728.261841 382.298431,720.738403 379.539093,712.986084 
	C372.256958,692.527161 365.137665,672.010071 358.017700,651.493835 
	C355.892609,645.370361 353.286499,638.981567 352.478882,632.936035 
	C351.035828,622.134094 348.745300,611.438232 347.840759,600.513184 
	C345.594086,573.378174 347.874298,546.849182 356.548248,521.016174 
	C362.379944,503.648163 371.059814,487.785675 381.765442,472.832062 
	C385.651031,467.404694 389.600006,466.118378 395.504028,466.421356 
	C403.691833,466.841492 411.883209,466.097168 419.989868,464.929596 
	C423.831512,464.376282 426.781677,466.346558 429.983215,467.544830 
	C454.339172,476.660583 478.726349,485.636292 503.986389,492.053558 
	C517.174316,495.403961 529.583069,492.058380 541.990601,488.467438 
	C564.605225,481.922394 586.798462,474.148438 608.495544,464.989441 
	C610.362671,464.201263 612.256348,464.762970 613.985352,465.079987 
	C624.591492,467.024475 635.481201,467.429962 645.973328,466.643829 
	C663.222961,465.351440 680.488708,463.099854 697.511414,459.554779 
	C701.670776,458.688568 702.521851,456.139954 702.525330,452.500031 
	C702.537903,439.440155 700.198059,426.711182 697.618958,413.975891 
	C697.006775,410.953003 695.383179,407.760529 697.000000,404.500000 
"/>
<path fill="none" opacity="1.000000" stroke="#000000" stroke-linecap="round" stroke-linejoin="round" stroke-width="5.000000"
	d="
M667.500000,771.500000 
	C672.130554,775.423340 677.839050,777.523499 683.056641,780.397156 
	C723.272400,802.546265 751.972595,835.065125 769.884827,877.049133 
	C778.296936,896.766113 783.526367,917.479614 785.015198,938.998962 
	C785.061829,939.673950 785.333313,940.333313 785.500000,941.000000 
"/>
<path fill="none" opacity="1.000000" stroke="#000000" stroke-linecap="round" stroke-linejoin="round" stroke-width="5.000000"
	d="
M646.000000,467.500000 
	C648.288208,472.913177 652.842957,476.691376 656.104248,481.428223 
	C673.172668,506.218628 681.880737,533.820129 685.047546,563.494934 
	C686.926086,581.097961 685.862366,598.596191 683.400879,615.985962 
	C680.521667,636.326965 674.268921,655.821594 667.028442,675.010742 
	C663.530273,684.281921 660.339539,693.668884 656.998962,702.999634 
	C645.885437,734.042175 634.770508,765.084351 622.007385,795.503113 
	C621.947937,795.644836 621.997864,795.833374 622.000305,796.000000 
	C622.168640,807.553528 614.106628,815.450195 608.836304,824.403625 
	C599.801086,839.753174 593.741760,856.238098 591.297424,873.541992 
	C588.170227,895.680237 590.039062,917.870056 596.468018,939.509521 
	C599.488647,949.676941 602.531921,959.808655 608.021729,968.987000 
	C608.973816,970.578674 608.418091,972.000000 608.000000,973.500000 
"/>
<path fill="none" opacity="1.000000" stroke="#000000" stroke-linecap="round" stroke-linejoin="round" stroke-width="5.000000"
	d="
M738.500000,751.500000 
	C741.764954,739.801514 745.266235,728.199524 746.589478,716.009705 
	C748.433472,699.023010 748.088379,682.424377 741.006714,666.497009 
	C733.308350,649.182983 714.752075,633.482971 694.001343,634.527222 
	C691.324707,634.661987 688.563965,634.830383 686.031799,635.604065 
	C683.923401,636.248291 682.296936,635.567078 680.500000,635.000000 
"/>
<path fill="none" opacity="1.000000" stroke="#000000" stroke-linecap="round" stroke-linejoin="round" stroke-width="5.000000"
	d="
M351.500000,633.000000 
	C350.000000,634.105347 348.524750,633.235901 346.996155,633.028259 
	C332.612823,631.075012 320.236755,635.521484 309.503906,645.004456 
	C295.082214,657.746521 289.061127,674.086304 288.449402,692.998352 
	C287.245392,730.224182 298.351715,763.199158 322.592865,791.420227 
	C334.076752,804.789490 348.027924,815.443726 363.498627,824.002441 
	C365.294556,824.996033 367.550964,825.484314 368.000000,828.000000 
"/>
<path fill="none" opacity="1.000000" stroke="#000000" stroke-linecap="round" stroke-linejoin="round" stroke-width="5.000000"
	d="
M664.000000,590.500000 
	C663.250427,599.119202 659.905029,607.039490 656.903320,614.963379 
	C650.861877,630.910950 643.295593,646.092712 632.522156,659.517761 
	C619.961365,675.169983 604.601257,686.327393 584.485107,689.916443 
	C582.436768,690.281860 580.069092,690.935303 578.000000,689.500000 
"/>
<path fill="none" opacity="1.000000" stroke="#000000" stroke-linecap="round" stroke-linejoin="round" stroke-width="5.000000"
	d="
M368.500000,590.500000 
	C374.097626,610.604248 381.474243,629.878296 392.907410,647.559875 
	C402.597351,662.545593 414.258057,675.170166 430.522461,682.953064 
	C437.735535,686.404663 445.184509,689.200806 453.505219,688.568848 
	C456.713959,688.325134 457.867676,691.351929 459.517883,693.486145 
	C464.246521,699.601868 469.406097,705.296692 476.001160,709.498169 
	C481.956299,713.292053 488.336365,715.824219 495.500000,716.000000 
"/>
<path fill="none" opacity="1.000000" stroke="#000000" stroke-linecap="round" stroke-linejoin="round" stroke-width="6.000000"
	d="
M552.500000,727.500000 
	C552.689209,733.175171 553.546509,738.783447 553.608154,744.498840 
	C553.788086,761.176086 554.284363,777.853210 555.464966,794.502502 
	C555.901001,800.652344 555.487915,806.823853 555.892151,813.007080 
	C556.609619,823.981934 556.675293,834.999756 556.996643,846.000122 
	C557.181763,852.332886 557.248962,858.670349 557.525818,864.998901 
	C557.760559,870.364624 565.294189,875.227722 570.426514,872.841858 
	C573.369263,871.473816 575.843811,871.345703 578.480652,872.542603 
	C582.376282,874.310852 586.596313,872.729370 590.500000,874.000000 
"/>
<path fill="none" opacity="1.000000" stroke="#000000" stroke-linecap="round" stroke-linejoin="round" stroke-width="5.000000"
	d="
M336.000000,404.500000 
	C336.900238,410.580994 334.294067,416.161560 333.512054,422.001617 
	C332.155609,432.131683 330.214081,442.186340 330.414124,452.501678 
	C330.493866,456.613220 331.666260,458.803009 335.987579,459.570038 
	C350.089996,462.073212 364.165741,464.664642 378.497498,465.541138 
	C380.754395,465.679138 383.164551,465.756897 385.000000,467.500000 
"/>
<path fill="none" opacity="1.000000" stroke="#000000" stroke-linecap="round" stroke-linejoin="round" stroke-width="5.000000"
	d="
M654.000000,707.000000 
	C638.193359,704.768494 622.770691,706.597473 607.487305,710.955444 
	C588.803894,716.283020 572.263184,725.312988 558.016968,738.518311 
	C556.978821,739.480591 555.825378,739.870300 554.500000,740.000000 
"/>
<path fill="none" opacity="1.000000" stroke="#000000" stroke-linecap="round" stroke-linejoin="round" stroke-width="5.000000"
	d="
M562.500000,215.500000 
	C557.745361,211.430664 551.670166,211.075897 545.983948,210.093018 
	C526.359009,206.700806 506.641296,206.633804 487.015900,210.090210 
	C481.330872,211.091446 475.254669,211.430664 470.500000,215.500000 
"/>
<path fill="none" opacity="1.000000" stroke="#000000" stroke-linecap="round" stroke-linejoin="round" stroke-width="5.000000"
	d="
M676.500000,151.000000 
	C659.184937,160.503128 645.203979,173.737839 633.507446,189.505524 
	C625.856506,199.819443 619.092896,210.638123 613.778992,222.400146 
	C612.919617,224.302139 613.966003,226.639145 612.000000,228.000000 
"/>
<path fill="none" opacity="1.000000" stroke="#000000" stroke-linecap="round" stroke-linejoin="round" stroke-width="5.000000"
	d="
M359.500000,151.000000 
	C376.823944,160.493149 390.854614,173.687134 402.479004,189.515411 
	C410.071564,199.853806 417.124939,210.503922 422.227478,222.402435 
	C423.036835,224.289764 422.033997,226.639145 424.000000,228.000000 
"/>
<path fill="none" opacity="1.000000" stroke="#000000" stroke-linecap="round" stroke-linejoin="round" stroke-width="5.000000"
	d="
M477.000000,851.500061 
	C484.833313,852.666748 492.640167,854.069214 500.505310,854.952881 
	C519.019348,857.032837 537.402771,856.377014 555.500000,851.500000 
"/>
<path fill="none" opacity="1.000000" stroke="#000000" stroke-linecap="round" stroke-linejoin="round" stroke-width="6.000000"
	d="
M415.500000,836.000000 
	C399.595520,836.257568 384.212036,833.695679 369.390503,827.004333 
	C365.348389,832.144348 360.389191,836.196533 358.353241,842.888367 
	C361.163879,844.760925 362.440247,846.850830 360.161530,850.598206 
	C358.127472,853.943359 360.517548,856.820862 365.001526,856.943848 
	C368.827423,857.048828 372.666199,856.536499 376.500092,856.522888 
	C391.999878,856.467834 407.500000,856.500000 423.000000,856.500000 
"/>
<path fill="none" opacity="1.000000" stroke="#000000" stroke-linecap="round" stroke-linejoin="round" stroke-width="5.000000"
	d="
M761.500000,754.000000 
	C730.545471,749.516357 700.788757,754.009216 672.564697,767.139038 
	C656.726013,774.507202 642.220825,784.226990 629.966003,796.967285 
	C627.824707,799.193481 626.065735,802.119995 622.500000,802.500000 
"/>
<path fill="none" opacity="1.000000" stroke="#000000" stroke-linecap="round" stroke-linejoin="round" stroke-width="13.000000"
	d="
M455.000000,410.500000 
	C451.114929,403.238281 444.821350,398.565430 436.973145,397.762695 
	C430.145538,397.064362 424.386841,400.977325 419.932770,406.445251 
	C418.785126,407.854126 417.788544,409.847198 415.500000,410.000000 
"/>
<path fill="none" opacity="1.000000" stroke="#000000" stroke-linecap="round" stroke-linejoin="round" stroke-width="5.000000"
	d="
M590.500000,664.000000 
	C589.710388,664.442688 588.430786,663.050354 587.952820,664.988342 
	C585.948303,673.116455 582.553589,681.021545 578.200562,687.807922 
	C569.688049,701.079041 559.619812,713.434692 542.512024,716.565796 
	C540.818909,716.875671 539.174377,716.910400 537.500000,717.000000 
"/>
<path fill="none" opacity="1.000000" stroke="#000000" stroke-linecap="round" stroke-linejoin="round" stroke-width="13.000000"
	d="
M616.000000,410.500000 
	C612.515991,403.312408 606.143494,399.762451 598.967163,397.609436 
	C595.962402,396.707947 592.751099,398.025146 590.026062,399.546631 
	C585.530212,402.056763 581.484497,405.190521 578.500000,409.500000 
"/>
<path fill="none" opacity="1.000000" stroke="#000000" stroke-linecap="round" stroke-linejoin="round" stroke-width="6.000000"
	d="
M653.500000,228.000000 
	C651.854431,228.377945 650.430237,229.080887 648.477051,228.591522 
	C639.091736,226.239944 629.594421,225.823547 619.984192,227.403885 
	C617.938049,227.740341 615.591736,228.140610 613.500000,227.000000 
"/>
<path fill="none" opacity="1.000000" stroke="#000000" stroke-linecap="round" stroke-linejoin="round" stroke-width="6.000000"
	d="
M422.500000,227.000000 
	C415.953247,228.657196 409.534882,225.662811 402.997498,226.479858 
	C398.176941,227.082336 393.202881,226.999649 388.555145,228.211502 
	C386.238281,228.815598 384.500000,228.577545 382.500000,228.000000 
"/>
<path fill="none" opacity="1.000000" stroke="#000000" stroke-linecap="round" stroke-linejoin="round" stroke-width="5.000000"
	d="
M730.750000,409.000000 
	C725.920715,406.708649 720.576965,406.939545 715.479797,406.126740 
	C709.373840,405.153076 703.330383,403.324585 696.995178,403.951447 
	C694.760498,404.172577 694.664124,401.954559 694.000000,400.500000 
"/>
<path fill="none" opacity="1.000000" stroke="#000000" stroke-linecap="round" stroke-linejoin="round" stroke-width="5.000000"
	d="
M339.000000,400.500000 
	C338.544434,404.588867 335.716766,403.316223 333.018616,403.650391 
	C324.135773,404.750702 315.338135,406.529633 306.493042,407.956909 
	C305.544647,408.109955 304.500000,407.666687 303.500000,407.500000 
"/>
<path fill="none" opacity="1.000000" stroke="#000000" stroke-linecap="round" stroke-linejoin="round" stroke-width="5.000000"
	d="
M445.000000,663.500000 
	C446.866302,670.170349 449.415009,676.554199 453.002777,682.498352 
	C454.121826,684.352356 454.714600,686.372925 455.000000,688.500000 
"/>
<path fill="none" opacity="1.000000" stroke="#000000" stroke-linecap="round" stroke-linejoin="round" stroke-width="5.000000"
	d="
M394.500000,246.500000 
	C393.244507,243.525803 391.127747,242.969299 387.986755,243.404388 
	C382.778534,244.125809 377.842041,245.685333 373.050659,247.625107 
	C371.531708,248.240021 370.184082,249.052200 368.500000,249.000000 
"/>
<path fill="none" opacity="1.000000" stroke="#000000" stroke-linecap="round" stroke-linejoin="round" stroke-width="5.000000"
	d="
M641.500000,245.000000 
	C648.636658,240.966705 654.961853,245.195236 661.486450,247.047653 
	C663.502747,247.620071 665.181274,249.289581 667.500000,249.000000 
"/>
<path fill="none" opacity="1.000000" stroke="#000000" stroke-linecap="round" stroke-linejoin="round" stroke-width="11.000000"
	d="
M534.000000,450.500000 
	C528.691406,450.453369 523.419800,450.609436 518.495728,452.991119 
	C517.190857,453.622253 515.792603,453.651001 514.507202,452.986053 
	C509.603027,450.448975 504.301544,450.497131 499.000000,450.500000 
"/>
<path fill="none" opacity="1.000000" stroke="#000000" stroke-linecap="round" stroke-linejoin="round" stroke-width="5.000000"
	d="
M386.000000,229.500000 
	C386.581940,233.133896 388.765625,236.125580 390.058777,239.477325 
	C390.499786,240.620346 390.799805,241.500000 390.000000,242.500000 
"/>
<path fill="none" opacity="1.000000" stroke="#000000" stroke-linecap="round" stroke-linejoin="round" stroke-width="5.000000"
	d="
M650.000000,229.500000 
	C649.418091,233.133896 647.234436,236.125595 645.941223,239.477325 
	C645.500244,240.620377 645.200195,241.500000 646.000000,242.500000 
"/>
<path fill="none" opacity="1.000000" stroke="#000000" stroke-linecap="round" stroke-linejoin="round" stroke-width="5.000000"
	d="
M480.000000,726.500000 
	C479.795105,730.619446 480.803131,734.887451 478.500000,738.750000 
"/>
</svg>